<svg xmlns="http://www.w3.org/2000/svg" xmlns:xlink="http://www.w3.org/1999/xlink" viewBox="0 0 33 33" width="33" height="33" role="img" aria-label="QR code" shape-rendering="crispEdges"><rect width="33" height="33" fill="#fff"/><g fill="#000"><path d="M4 4h1v1H4Z"/><path d="M5 4h1v1H5Z"/><path d="M6 4h1v1H6Z"/><path d="M7 4h1v1H7Z"/><path d="M8 4h1v1H8Z"/><path d="M9 4h1v1H9Z"/><path d="M10 4h1v1H10Z"/><path d="M12 4h1v1H12Z"/><path d="M13 4h1v1H13Z"/><path d="M15 4h1v1H15Z"/><path d="M16 4h1v1H16Z"/><path d="M18 4h1v1H18Z"/><path d="M19 4h1v1H19Z"/><path d="M20 4h1v1H20Z"/><path d="M22 4h1v1H22Z"/><path d="M23 4h1v1H23Z"/><path d="M24 4h1v1H24Z"/><path d="M25 4h1v1H25Z"/><path d="M26 4h1v1H26Z"/><path d="M27 4h1v1H27Z"/><path d="M28 4h1v1H28Z"/><path d="M4 5h1v1H4Z"/><path d="M10 5h1v1H10Z"/><path d="M16 5h1v1H16Z"/><path d="M17 5h1v1H17Z"/><path d="M20 5h1v1H20Z"/><path d="M22 5h1v1H22Z"/><path d="M28 5h1v1H28Z"/><path d="M4 6h1v1H4Z"/><path d="M6 6h1v1H6Z"/><path d="M7 6h1v1H7Z"/><path d="M8 6h1v1H8Z"/><path d="M10 6h1v1H10Z"/><path d="M13 6h1v1H13Z"/><path d="M14 6h1v1H14Z"/><path d="M15 6h1v1H15Z"/><path d="M18 6h1v1H18Z"/><path d="M22 6h1v1H22Z"/><path d="M24 6h1v1H24Z"/><path d="M25 6h1v1H25Z"/><path d="M26 6h1v1H26Z"/><path d="M28 6h1v1H28Z"/><path d="M4 7h1v1H4Z"/><path d="M6 7h1v1H6Z"/><path d="M7 7h1v1H7Z"/><path d="M8 7h1v1H8Z"/><path d="M10 7h1v1H10Z"/><path d="M12 7h1v1H12Z"/><path d="M13 7h1v1H13Z"/><path d="M15 7h1v1H15Z"/><path d="M20 7h1v1H20Z"/><path d="M22 7h1v1H22Z"/><path d="M24 7h1v1H24Z"/><path d="M25 7h1v1H25Z"/><path d="M26 7h1v1H26Z"/><path d="M28 7h1v1H28Z"/><path d="M4 8h1v1H4Z"/><path d="M6 8h1v1H6Z"/><path d="M7 8h1v1H7Z"/><path d="M8 8h1v1H8Z"/><path d="M10 8h1v1H10Z"/><path d="M12 8h1v1H12Z"/><path d="M13 8h1v1H13Z"/><path d="M14 8h1v1H14Z"/><path d="M16 8h1v1H16Z"/><path d="M18 8h1v1H18Z"/><path d="M19 8h1v1H19Z"/><path d="M20 8h1v1H20Z"/><path d="M22 8h1v1H22Z"/><path d="M24 8h1v1H24Z"/><path d="M25 8h1v1H25Z"/><path d="M26 8h1v1H26Z"/><path d="M28 8h1v1H28Z"/><path d="M4 9h1v1H4Z"/><path d="M10 9h1v1H10Z"/><path d="M12 9h1v1H12Z"/><path d="M13 9h1v1H13Z"/><path d="M15 9h1v1H15Z"/><path d="M16 9h1v1H16Z"/><path d="M20 9h1v1H20Z"/><path d="M22 9h1v1H22Z"/><path d="M28 9h1v1H28Z"/><path d="M4 10h1v1H4Z"/><path d="M5 10h1v1H5Z"/><path d="M6 10h1v1H6Z"/><path d="M7 10h1v1H7Z"/><path d="M8 10h1v1H8Z"/><path d="M9 10h1v1H9Z"/><path d="M10 10h1v1H10Z"/><path d="M12 10h1v1H12Z"/><path d="M14 10h1v1H14Z"/><path d="M16 10h1v1H16Z"/><path d="M18 10h1v1H18Z"/><path d="M20 10h1v1H20Z"/><path d="M22 10h1v1H22Z"/><path d="M23 10h1v1H23Z"/><path d="M24 10h1v1H24Z"/><path d="M25 10h1v1H25Z"/><path d="M26 10h1v1H26Z"/><path d="M27 10h1v1H27Z"/><path d="M28 10h1v1H28Z"/><path d="M12 11h1v1H12Z"/><path d="M15 11h1v1H15Z"/><path d="M17 11h1v1H17Z"/><path d="M20 11h1v1H20Z"/><path d="M4 12h1v1H4Z"/><path d="M8 12h1v1H8Z"/><path d="M10 12h1v1H10Z"/><path d="M11 12h1v1H11Z"/><path d="M12 12h1v1H12Z"/><path d="M13 12h1v1H13Z"/><path d="M14 12h1v1H14Z"/><path d="M17 12h1v1H17Z"/><path d="M21 12h1v1H21Z"/><path d="M22 12h1v1H22Z"/><path d="M23 12h1v1H23Z"/><path d="M24 12h1v1H24Z"/><path d="M25 12h1v1H25Z"/><path d="M28 12h1v1H28Z"/><path d="M5 13h1v1H5Z"/><path d="M6 13h1v1H6Z"/><path d="M7 13h1v1H7Z"/><path d="M8 13h1v1H8Z"/><path d="M11 13h1v1H11Z"/><path d="M16 13h1v1H16Z"/><path d="M17 13h1v1H17Z"/><path d="M18 13h1v1H18Z"/><path d="M19 13h1v1H19Z"/><path d="M20 13h1v1H20Z"/><path d="M24 13h1v1H24Z"/><path d="M25 13h1v1H25Z"/><path d="M27 13h1v1H27Z"/><path d="M4 14h1v1H4Z"/><path d="M5 14h1v1H5Z"/><path d="M7 14h1v1H7Z"/><path d="M9 14h1v1H9Z"/><path d="M10 14h1v1H10Z"/><path d="M12 14h1v1H12Z"/><path d="M13 14h1v1H13Z"/><path d="M14 14h1v1H14Z"/><path d="M15 14h1v1H15Z"/><path d="M19 14h1v1H19Z"/><path d="M20 14h1v1H20Z"/><path d="M22 14h1v1H22Z"/><path d="M25 14h1v1H25Z"/><path d="M26 14h1v1H26Z"/><path d="M5 15h1v1H5Z"/><path d="M6 15h1v1H6Z"/><path d="M11 15h1v1H11Z"/><path d="M18 15h1v1H18Z"/><path d="M21 15h1v1H21Z"/><path d="M26 15h1v1H26Z"/><path d="M27 15h1v1H27Z"/><path d="M5 16h1v1H5Z"/><path d="M9 16h1v1H9Z"/><path d="M10 16h1v1H10Z"/><path d="M11 16h1v1H11Z"/><path d="M17 16h1v1H17Z"/><path d="M18 16h1v1H18Z"/><path d="M19 16h1v1H19Z"/><path d="M21 16h1v1H21Z"/><path d="M22 16h1v1H22Z"/><path d="M25 16h1v1H25Z"/><path d="M26 16h1v1H26Z"/><path d="M27 16h1v1H27Z"/><path d="M28 16h1v1H28Z"/><path d="M4 17h1v1H4Z"/><path d="M7 17h1v1H7Z"/><path d="M8 17h1v1H8Z"/><path d="M11 17h1v1H11Z"/><path d="M14 17h1v1H14Z"/><path d="M16 17h1v1H16Z"/><path d="M19 17h1v1H19Z"/><path d="M24 17h1v1H24Z"/><path d="M27 17h1v1H27Z"/><path d="M6 18h1v1H6Z"/><path d="M7 18h1v1H7Z"/><path d="M9 18h1v1H9Z"/><path d="M10 18h1v1H10Z"/><path d="M11 18h1v1H11Z"/><path d="M13 18h1v1H13Z"/><path d="M15 18h1v1H15Z"/><path d="M16 18h1v1H16Z"/><path d="M17 18h1v1H17Z"/><path d="M18 18h1v1H18Z"/><path d="M19 18h1v1H19Z"/><path d="M21 18h1v1H21Z"/><path d="M23 18h1v1H23Z"/><path d="M24 18h1v1H24Z"/><path d="M25 18h1v1H25Z"/><path d="M26 18h1v1H26Z"/><path d="M6 19h1v1H6Z"/><path d="M7 19h1v1H7Z"/><path d="M9 19h1v1H9Z"/><path d="M12 19h1v1H12Z"/><path d="M13 19h1v1H13Z"/><path d="M14 19h1v1H14Z"/><path d="M15 19h1v1H15Z"/><path d="M17 19h1v1H17Z"/><path d="M19 19h1v1H19Z"/><path d="M20 19h1v1H20Z"/><path d="M23 19h1v1H23Z"/><path d="M24 19h1v1H24Z"/><path d="M26 19h1v1H26Z"/><path d="M27 19h1v1H27Z"/><path d="M4 20h1v1H4Z"/><path d="M5 20h1v1H5Z"/><path d="M7 20h1v1H7Z"/><path d="M10 20h1v1H10Z"/><path d="M11 20h1v1H11Z"/><path d="M16 20h1v1H16Z"/><path d="M17 20h1v1H17Z"/><path d="M20 20h1v1H20Z"/><path d="M21 20h1v1H21Z"/><path d="M22 20h1v1H22Z"/><path d="M23 20h1v1H23Z"/><path d="M24 20h1v1H24Z"/><path d="M25 20h1v1H25Z"/><path d="M26 20h1v1H26Z"/><path d="M12 21h1v1H12Z"/><path d="M13 21h1v1H13Z"/><path d="M17 21h1v1H17Z"/><path d="M18 21h1v1H18Z"/><path d="M20 21h1v1H20Z"/><path d="M24 21h1v1H24Z"/><path d="M4 22h1v1H4Z"/><path d="M5 22h1v1H5Z"/><path d="M6 22h1v1H6Z"/><path d="M7 22h1v1H7Z"/><path d="M8 22h1v1H8Z"/><path d="M9 22h1v1H9Z"/><path d="M10 22h1v1H10Z"/><path d="M12 22h1v1H12Z"/><path d="M14 22h1v1H14Z"/><path d="M20 22h1v1H20Z"/><path d="M22 22h1v1H22Z"/><path d="M24 22h1v1H24Z"/><path d="M4 23h1v1H4Z"/><path d="M10 23h1v1H10Z"/><path d="M16 23h1v1H16Z"/><path d="M18 23h1v1H18Z"/><path d="M20 23h1v1H20Z"/><path d="M24 23h1v1H24Z"/><path d="M25 23h1v1H25Z"/><path d="M26 23h1v1H26Z"/><path d="M27 23h1v1H27Z"/><path d="M28 23h1v1H28Z"/><path d="M4 24h1v1H4Z"/><path d="M6 24h1v1H6Z"/><path d="M7 24h1v1H7Z"/><path d="M8 24h1v1H8Z"/><path d="M10 24h1v1H10Z"/><path d="M12 24h1v1H12Z"/><path d="M13 24h1v1H13Z"/><path d="M15 24h1v1H15Z"/><path d="M17 24h1v1H17Z"/><path d="M18 24h1v1H18Z"/><path d="M20 24h1v1H20Z"/><path d="M21 24h1v1H21Z"/><path d="M22 24h1v1H22Z"/><path d="M23 24h1v1H23Z"/><path d="M24 24h1v1H24Z"/><path d="M25 24h1v1H25Z"/><path d="M26 24h1v1H26Z"/><path d="M28 24h1v1H28Z"/><path d="M4 25h1v1H4Z"/><path d="M6 25h1v1H6Z"/><path d="M7 25h1v1H7Z"/><path d="M8 25h1v1H8Z"/><path d="M10 25h1v1H10Z"/><path d="M13 25h1v1H13Z"/><path d="M16 25h1v1H16Z"/><path d="M20 25h1v1H20Z"/><path d="M21 25h1v1H21Z"/><path d="M22 25h1v1H22Z"/><path d="M23 25h1v1H23Z"/><path d="M26 25h1v1H26Z"/><path d="M27 25h1v1H27Z"/><path d="M28 25h1v1H28Z"/><path d="M4 26h1v1H4Z"/><path d="M6 26h1v1H6Z"/><path d="M7 26h1v1H7Z"/><path d="M8 26h1v1H8Z"/><path d="M10 26h1v1H10Z"/><path d="M15 26h1v1H15Z"/><path d="M16 26h1v1H16Z"/><path d="M17 26h1v1H17Z"/><path d="M18 26h1v1H18Z"/><path d="M19 26h1v1H19Z"/><path d="M22 26h1v1H22Z"/><path d="M25 26h1v1H25Z"/><path d="M27 26h1v1H27Z"/><path d="M4 27h1v1H4Z"/><path d="M10 27h1v1H10Z"/><path d="M13 27h1v1H13Z"/><path d="M14 27h1v1H14Z"/><path d="M15 27h1v1H15Z"/><path d="M17 27h1v1H17Z"/><path d="M21 27h1v1H21Z"/><path d="M23 27h1v1H23Z"/><path d="M24 27h1v1H24Z"/><path d="M25 27h1v1H25Z"/><path d="M26 27h1v1H26Z"/><path d="M27 27h1v1H27Z"/><path d="M4 28h1v1H4Z"/><path d="M5 28h1v1H5Z"/><path d="M6 28h1v1H6Z"/><path d="M7 28h1v1H7Z"/><path d="M8 28h1v1H8Z"/><path d="M9 28h1v1H9Z"/><path d="M10 28h1v1H10Z"/><path d="M12 28h1v1H12Z"/><path d="M13 28h1v1H13Z"/><path d="M14 28h1v1H14Z"/><path d="M16 28h1v1H16Z"/><path d="M17 28h1v1H17Z"/><path d="M19 28h1v1H19Z"/><path d="M26 28h1v1H26Z"/><path d="M27 28h1v1H27Z"/><path d="M28 28h1v1H28Z"/></g></svg>