<?xml version="1.0" encoding="UTF-8" standalone="no"?>
<!DOCTYPE svg PUBLIC "-//W3C//DTD SVG 1.1//EN" "http://www.w3.org/Graphics/SVG/1.1/DTD/svg11.dtd">
<svg width="100%" height="100%" viewBox="0 0 1000 1000" version="1.1" xmlns="http://www.w3.org/2000/svg" xmlns:xlink="http://www.w3.org/1999/xlink" xml:space="preserve" xmlns:serif="http://www.serif.com/" style="fill-rule:evenodd;clip-rule:evenodd;stroke-linejoin:round;stroke-miterlimit:2;">
    <g transform="matrix(1.080931,0,0,1.080931,0.028825,40.523282)">
        <path d="M406.931,409.033C402.364,403.403 402.63,403.387 402.203,402.942C399.114,399.721 402.129,405.232 423.951,454.305C424.823,456.265 425.958,458.686 432.555,473.476C458.956,532.66 478.677,575.759 478.809,579.483C480.857,637.259 477.58,639.51 473.418,642.369C466.544,647.091 355.721,644.235 345.489,643.971C218.952,640.709 56.756,526.179 15.935,380.378C-74.584,57.066 328.992,2.073 367.501,2.186C660.647,3.045 908.565,242.428 922.769,473.482C941.549,778.994 640.181,902.55 380.434,826.706C312.36,806.83 233.311,762.65 206.871,741.076C191.401,728.452 207.035,703.975 217.466,706.659C225.566,708.743 376.978,828.28 547.502,806.516C659.619,792.206 768.129,737.397 795.52,574.503C797.717,561.442 798.952,492.905 795.789,469.452C788.072,412.243 763.8,322.38 705.417,236.559C536.278,-12.07 277.661,-4.539 171.742,130.682C55.007,279.711 146.01,594.202 320.494,607.398C322.881,607.579 321.499,605.584 304.656,559.44C182.773,225.514 181.39,225.565 180.549,207.498C178.178,156.531 183.283,154.693 187.402,153.21C194.814,150.542 395.413,152.325 413.5,152.485C429.385,152.626 669.192,275.623 739.723,485.42C795.259,650.613 684.122,666.131 636.375,640.751C613.339,628.506 607.314,625.303 406.931,409.033L417,371.002C543.722,502.44 546.047,502.983 561.482,506.592C614.969,519.098 621.582,433.573 568.952,318.299C549.677,276.082 540.376,275.528 397.5,275.459C325.552,275.424 324.491,276.306 324.931,277.226C325.11,277.601 409.627,363.507 417,371.002L406.931,409.033Z" style="fill-opacity:1;"/>
    </g>
</svg>
